# xmcd
#
# Track frame offsets:
#	150
#	19640
#	44580
#	61275
#	88352
#	110122
#	119312
#	147115
#	162425
#	181980
#	205807
#	215212
#	238495
#
# Disc length: 3408 seconds
#
# Revision: 1
# Processed by: cddbd v1.5.2PL0 Copyright (c) Steve Scherf et al.
# Submitted via: audiograbber 1.83.01
#
DISCID=cb0d4e0d
DTITLE=Depeche Mode - Exciter
DYEAR=2001
DGENRE=New Wave
TTITLE0=Dream On
TTITLE1=Shine
TTITLE2=The Sweetest Condition
TTITLE3=When The Body Speaks
TTITLE4=The Dead Of Night
TTITLE5=Lovetheme
TTITLE6=Freelove
TTITLE7=Comatose
TTITLE8=I Feel Loved
TTITLE9=Breathe
TTITLE10=Easy Tiger
TTITLE11=I Am You
TTITLE12=Goodnight Lovers
EXTD=
EXTT0=
EXTT1=
EXTT2=
EXTT3=
EXTT4=
EXTT5=
EXTT6=
EXTT7=
EXTT8=
EXTT9=
EXTT10=
EXTT11=
EXTT12=
PLAYORDER=
